<svg width="212" height="66" viewBox="0 0 212 66" fill="none" xmlns="http://www.w3.org/2000/svg">
<path d="M164.92 33.7269H159.15C159.085 31.2789 159.131 28.8424 159.123 26.4096C159.116 23.9769 159.123 21.5328 159.123 19.0962C159.074 19.0771 159.024 19.058 158.971 19.0389C158.837 19.2566 158.7 19.4705 158.566 19.6882C156.671 22.8045 154.775 25.9195 152.877 29.0333C152.801 29.1593 152.732 29.2892 152.648 29.4114C152.335 29.8582 151.924 29.8506 151.603 29.3846C151.519 29.2624 151.451 29.1364 151.371 29.0104C149.502 25.9361 147.632 22.8631 145.761 19.7913C145.623 19.5505 145.458 19.3263 145.269 19.123C145.178 19.9087 145.147 20.7002 145.174 21.4908C145.166 22.3004 145.174 23.1062 145.174 23.9158V33.7078H139.354V8.06311H145.185C147.469 11.8019 149.773 15.5751 152.122 19.4247C152.328 19.1077 152.473 18.8862 152.61 18.6609C154.65 15.3192 156.698 11.9814 158.715 8.62451C158.812 8.42029 158.969 8.25113 159.166 8.14033C159.363 8.02952 159.589 7.98252 159.813 8.00582C161.499 8.04019 163.185 8.01728 164.862 8.01728C165.019 8.56721 165.068 32.5773 164.92 33.7269Z" fill="#1D5506"/>
<path d="M95.5955 33.7268H89.8487C89.6924 33.2113 89.6352 9.26608 89.7877 8.06691C89.9631 8.05164 90.15 8.02109 90.3368 8.02109C91.3894 8.01727 92.4419 8.044 93.4905 8.00581C93.6926 7.98562 93.8963 8.02381 94.0774 8.11585C94.2585 8.20789 94.4095 8.34994 94.5125 8.5252C96.3353 11.1336 98.1849 13.7229 100.027 16.3198C101.175 17.9391 102.322 19.5558 103.47 21.1699C103.611 21.38 103.782 21.568 103.977 21.7275C104.061 20.8262 104.05 19.9402 104.054 19.0504V8.0631H109.888V33.7039C109.64 33.7192 109.404 33.7421 109.167 33.7421C108.165 33.7459 107.162 33.7116 106.159 33.7574C105.945 33.775 105.73 33.7303 105.54 33.6286C105.351 33.527 105.195 33.3728 105.091 33.1846C102.143 29.0027 99.1852 24.8286 96.2171 20.662C96.0585 20.4177 95.8491 20.2106 95.6032 20.0548C95.5994 20.7957 95.5917 21.5366 95.5879 22.2775C95.5841 23.0374 95.5879 23.7974 95.5879 24.5574V31.3973C95.5955 32.1458 95.5955 32.9019 95.5955 33.7268Z" fill="#1D5506"/>
<path d="M53.4382 33.723V8.05544C53.6785 8.04017 53.892 8.01725 54.1056 8.01725C57.3355 8.01343 60.5617 8.00579 63.7916 8.01725C66.6695 8.01786 69.456 9.02955 71.6657 10.8761C73.8753 12.7226 75.3681 15.2869 75.884 18.1224C76.5361 21.6053 76.0823 24.924 74.187 27.941C71.838 31.6799 68.383 33.6161 63.9861 33.7268C60.638 33.8109 57.286 33.7459 53.934 33.7421C53.7929 33.7459 53.648 33.7345 53.4382 33.723ZM59.3223 28.1053C61.2672 28.0518 63.1586 28.2733 65.0196 27.9678C66.1826 27.8203 67.2775 27.3364 68.1702 26.5754C69.0629 25.8143 69.7146 24.8091 70.0456 23.6828C70.6802 21.8362 70.6695 19.8284 70.0151 17.9887C69.7072 17.0137 69.1557 16.1335 68.4129 15.4318C67.6701 14.73 66.7607 14.2299 65.7708 13.9787C65.1329 13.8119 64.4775 13.7209 63.8183 13.7076C62.4989 13.6656 61.1795 13.6923 59.86 13.6961C59.696 13.6961 59.5283 13.719 59.3223 13.7381C59.3223 18.5119 59.3223 23.2513 59.3223 28.1053Z" fill="#1D5506"/>
<path d="M120.848 8.04401H128.357C131.255 16.5795 134.161 25.1379 137.074 33.7192H130.656C130.233 32.4093 129.817 31.107 129.386 29.7704H119.83C119.414 31.0574 118.99 32.3724 118.556 33.7154H112.138C115.044 25.1354 117.947 16.5782 120.848 8.04401ZM127.514 24.1641C127.377 23.2017 124.841 15.3994 124.524 14.9984C123.563 18.0536 122.56 21.0745 121.626 24.1641H127.514Z" fill="#1D5506"/>
<path d="M192.132 33.723H185.718C185.295 32.4131 184.868 31.0956 184.433 29.7551H174.884C174.465 31.0574 174.045 32.3558 173.614 33.6963H167.192C170.098 25.1302 172.993 16.6062 175.898 8.05545H183.418C186.313 16.5871 189.207 25.1073 192.132 33.723ZM182.656 24.1679C181.649 21.0401 180.722 18.0002 179.578 15.0061C178.614 18.0422 177.649 21.0783 176.665 24.1679H182.656Z" fill="#1D5506"/>
<path d="M210.845 8.06311C210.845 9.55252 210.86 10.9923 210.829 12.4321C210.78 12.6953 210.666 12.942 210.497 13.15C207.515 17.8665 204.528 22.5792 201.536 27.288C201.395 27.5095 201.261 27.731 201.04 28.0862H211.005V33.7039H193.478C193.45 33.5026 193.432 33.2999 193.425 33.0967C193.417 32.0427 193.44 30.9886 193.413 29.9384C193.397 29.4502 193.535 28.9693 193.806 28.5635C196.792 23.8814 199.769 19.1917 202.737 14.4943C202.878 14.2728 203 14.0437 203.202 13.6962H193.646V8.06692C199.366 8.0631 205.052 8.06311 210.845 8.06311Z" fill="#1D5506"/>
<path d="M82.9502 18.8403H78.5381C79.0262 15.2352 79.5067 11.6797 79.9948 8.07455H85.8637C84.8912 11.6606 83.9264 15.2352 82.9502 18.8403Z" fill="#1D5506"/>
<path d="M164.82 48.6239C163.638 50.583 162.452 52.5422 161.236 54.551C160.694 54.1156 160.507 53.5466 160.195 53.073C159.874 52.5842 159.588 52.0686 159.283 51.5645C158.994 51.0833 158.704 50.5983 158.414 50.1171C158.12 49.5952 157.771 49.1061 157.373 48.6583V56.999H155.378V44.8889H157.529C158.708 46.8442 159.901 48.8339 161.148 50.9076C161.335 50.6212 161.484 50.4035 161.617 50.182C162.593 48.5704 163.573 46.9588 164.531 45.3357C164.599 45.1681 164.72 45.0275 164.876 44.9357C165.031 44.8439 165.213 44.806 165.392 44.8278C165.877 44.8698 166.365 44.8354 166.838 44.8354C166.994 45.4006 167.044 55.9411 166.891 57.0372H164.996C164.996 56.3001 164.992 55.6012 164.992 54.9023V52.7713C164.992 52.0839 164.996 51.4003 164.992 50.7129C164.988 50.0255 164.981 49.3342 164.973 48.643C164.92 48.6391 164.87 48.6315 164.82 48.6239Z" fill="#322E29"/>
<path d="M199.507 57.0143V44.8775C199.751 44.8622 199.965 44.8393 200.178 44.8393C201.475 44.8355 202.771 44.8698 204.068 44.8316C207.782 44.7209 210.482 47.925 210.032 51.7555C209.884 53.157 209.253 54.463 208.247 55.4485C207.378 56.3672 206.192 56.9201 204.93 56.9952C203.149 57.0716 201.364 57.0143 199.507 57.0143ZM201.448 46.7602C201.452 49.5901 201.444 52.336 201.452 55.1086C202.611 55.1086 203.664 55.1735 204.705 55.0933C205.357 55.0525 205.985 54.8285 206.517 54.4469C207.048 54.0653 207.462 53.5415 207.71 52.9356C208.004 52.3263 208.16 51.6591 208.166 50.9822C208.172 50.3053 208.028 49.6355 207.744 49.0211C207.491 48.377 207.056 47.8209 206.491 47.4212C205.927 47.0216 205.258 46.7959 204.567 46.7717C203.576 46.7068 202.573 46.7602 201.448 46.7602Z" fill="#322E29"/>
<path d="M71.2544 44.8547H73.6683C75.1212 48.8838 76.5741 52.9205 78.0499 57.0107H75.9029C75.6284 56.243 75.3462 55.4487 75.0487 54.6161H69.8777C69.5994 55.399 69.3134 56.201 69.0235 57.003H66.8613C68.3371 52.9243 69.7862 48.9067 71.2544 44.8547ZM72.4594 47.2187C71.7844 49.1435 71.1514 50.8735 70.5756 52.6455C71.8874 52.7983 73.8208 52.7448 74.328 52.5424C73.7255 50.8239 73.123 49.1053 72.4594 47.2187Z" fill="#322E29"/>
<path d="M112.874 44.8662H115.296C116.748 48.8953 118.198 52.9167 119.67 56.9954H117.526C117.244 56.2087 116.954 55.4105 116.661 54.5932H111.509C111.227 55.3838 110.941 56.1819 110.643 57.003H108.481C109.957 52.9358 111.413 48.9029 112.874 44.8662ZM116.001 52.6799C115.364 50.8582 114.762 49.1473 114.163 47.4364H114.007C113.416 49.1664 112.767 50.8773 112.199 52.6799H116.001Z" fill="#322E29"/>
<path d="M64.6 47.5394C64.0242 47.8755 63.4789 48.1886 62.9107 48.5209C62.5722 47.9562 62.0994 47.4842 61.5345 47.147C60.9696 46.8098 60.3301 46.6179 59.6731 46.5884C59.0623 46.5261 58.4453 46.5966 57.8641 46.795C57.283 46.9933 56.7515 47.315 56.3059 47.738C54.5288 49.4489 54.6127 52.611 56.4241 54.2685C57.8465 55.5708 61.1985 55.9947 62.9145 53.3748C63.4522 53.6727 63.9975 53.9782 64.5352 54.2761C63.906 56.1932 61.1756 57.4803 58.4185 57.19C56.9963 57.0174 55.6791 56.3522 54.6951 55.3095C53.711 54.2668 53.1221 52.9123 53.0301 51.4806C52.892 50.0784 53.2313 48.6706 53.9928 47.4858C54.7542 46.301 55.8933 45.4087 57.2249 44.9539C60.1917 43.9992 63.2653 45.1487 64.6 47.5394Z" fill="#322E29"/>
<path d="M188.501 56.9571V44.8928H195.697V46.7298H190.473C190.462 47.2874 190.446 47.7876 190.442 48.2918C190.439 48.8035 190.442 49.3114 190.442 49.9148H195.266V51.8205H190.484V55.1125H195.8V56.9189C195.308 57.0678 189.401 57.106 188.501 56.9571Z" fill="#322E29"/>
<path d="M83.1293 52.8593V56.9838H81.1807V44.9158C81.313 44.8799 81.4483 44.8556 81.5849 44.8432C82.9806 44.8394 84.3725 44.8203 85.7682 44.847C86.5692 44.8516 87.3495 45.1024 88.0035 45.5654C88.6576 46.0285 89.1538 46.6816 89.4253 47.4363C89.6627 48.0579 89.7415 48.729 89.6544 49.3888C89.5674 50.0486 89.3174 50.6763 88.9269 51.2148C88.5365 51.7534 88.018 52.1858 87.4185 52.473C86.8189 52.7601 86.1573 52.8929 85.4936 52.8593H83.1293ZM83.1408 50.9269C83.251 50.9546 83.3632 50.9738 83.4763 50.9841C84.2085 50.988 84.9407 50.9956 85.6729 50.9765C85.8926 50.9684 86.1098 50.9272 86.3173 50.8543C86.7458 50.6982 87.1094 50.4025 87.3501 50.0148C87.5907 49.627 87.6943 49.1695 87.6444 48.7157C87.6523 48.2702 87.5063 47.8357 87.2312 47.4857C86.956 47.1356 86.5685 46.8916 86.1343 46.7947C85.1395 46.6964 84.1384 46.6785 83.1408 46.7412C83.1408 48.1772 83.1408 49.5177 83.1408 50.9269Z" fill="#322E29"/>
<path d="M185.26 44.8813V46.7259C184.173 46.7832 183.083 46.7221 181.9 46.7641C181.836 47.6272 181.881 48.475 181.874 49.319C181.866 50.1783 181.874 51.0338 181.874 51.893V56.9991H179.879V46.7909H176.489V44.889C179.387 44.8814 182.286 44.8813 185.26 44.8813Z" fill="#322E29"/>
<path d="M107.223 44.8891V46.7413H103.825V57.0374H101.842V46.7566H98.425V44.9578C98.9017 44.8051 105.766 44.7401 107.223 44.8891Z" fill="#322E29"/>
<path d="M122.751 44.8623H124.638C124.692 45.7063 124.654 46.5541 124.661 47.3981C124.669 48.2536 124.661 49.109 124.661 49.9645V55.0896H129.569V56.9915H122.797C122.659 56.4683 122.61 46.0271 122.751 44.8623Z" fill="#322E29"/>
<path d="M145.91 55.1163V56.9151C145.399 57.0678 140.014 57.1098 139.026 56.9647V44.8737C139.206 44.8622 139.347 44.8432 139.488 44.8393C139.945 44.8355 140.407 44.8393 140.952 44.8393V55.1201C142.634 55.1163 144.235 55.1163 145.91 55.1163Z" fill="#322E29"/>
<path d="M149.239 44.8354C149.689 44.8354 150.101 44.8316 150.512 44.8354C150.703 44.8393 150.898 44.8545 151.138 44.866V56.999H149.292C149.14 56.5063 149.082 46.1606 149.239 44.8354Z" fill="#322E29"/>
<path d="M171.269 44.8699H173.168V56.98H171.303C171.166 56.4797 171.128 45.8666 171.269 44.8699Z" fill="#322E29"/>
<path d="M93.2502 44.8584H95.0348C95.1759 45.4083 95.2179 55.9755 95.0806 56.9952H93.2883C93.1472 56.4682 93.1053 45.859 93.2502 44.8584Z" fill="#322E29"/>
<path d="M37.7574 15.0024C37.2445 14.8594 36.7713 14.7324 36.306 14.5894C36.1611 14.5422 36.0075 14.5282 35.8565 14.5484C35.7056 14.5686 35.561 14.6224 35.4335 14.7059C35.0713 14.9256 34.6959 15.1216 34.3284 15.336C33.686 15.7094 33.567 16.1912 33.9583 16.8187C33.9847 16.8611 34.0138 16.9035 34.0799 17.0067C33.3661 17.4171 32.6575 17.8222 31.9173 18.2485C31.7824 17.5469 31.6899 16.8982 31.5339 16.2627C30.6139 12.5692 28.5464 9.71764 25.2311 7.82719C23.4069 6.78665 21.4002 6.37626 19.3222 6.35773C16.2871 6.3286 13.2494 6.34714 10.2143 6.34714C10.1164 6.34714 10.016 6.36038 9.87322 6.37097V35.2493C7.67886 36.5016 5.50301 37.7407 3.32187 38.9852C3.20555 38.5959 3.16589 0.832009 3.27428 0.0377034C3.39854 0.0271127 3.52809 0.00857871 3.65764 0.00857871C8.89766 0.00857871 14.1403 -0.0152508 19.3803 0.0165214C23.1848 0.0403506 26.7328 1.01205 29.8551 3.2467C33.7891 6.06119 36.4514 9.78648 37.6887 14.4994C37.7151 14.5973 37.7389 14.6979 37.7574 14.7959C37.7616 14.8647 37.7616 14.9336 37.7574 15.0024Z" fill="#322E29"/>
<path d="M38.54 46.5893C39.1481 55.9489 32.6575 63.8946 23.7849 65.319C14.2355 66.852 6.21419 60.6114 4.07007 52.8537C4.13194 52.8421 4.19515 52.8394 4.25778 52.8458C6.83113 53.5488 9.49793 53.8471 12.1628 53.7301C20.1173 53.5384 27.9496 51.7268 35.1824 48.4056C36.1976 47.9396 37.1546 47.3518 38.1381 46.8196C38.2545 46.7534 38.3708 46.6846 38.54 46.5893Z" fill="#1D5506"/>
<path d="M36.5068 19.8238C36.639 19.2837 36.7448 18.8468 36.8664 18.3437C36.6893 18.4311 36.5809 18.4735 36.4804 18.5317C33.8234 20.0674 31.1646 21.6013 28.504 23.1334C28.3887 23.1822 28.2923 23.2672 28.2294 23.3756C28.1665 23.484 28.1404 23.6099 28.1551 23.7344C28.1789 24.1739 28.1445 24.6188 28.1683 25.0583C28.1845 25.1905 28.1571 25.3244 28.0903 25.4396C28.0235 25.5548 27.9209 25.645 27.7982 25.6964C25.7941 26.8375 23.7945 27.9875 21.7994 29.1463C19.7874 30.3086 17.7773 31.4736 15.7688 32.6412C15.6367 32.718 15.5097 32.8001 15.3538 32.8954V35.0109C15.0339 35.2016 14.7192 35.3975 14.3967 35.5775C11.6286 37.1238 8.86058 38.6691 6.09251 40.2136C5.38397 40.6108 4.70187 41.0582 4.00126 41.4739C3.19959 41.9911 2.52457 42.6825 2.02634 43.4968C1.97186 43.5829 1.92243 43.6722 1.87829 43.7642C1.30987 44.8656 1.49758 45.6943 2.49958 46.4277C3.43549 47.1108 4.52209 47.4524 5.63249 47.7066C7.87527 48.1811 10.1685 48.3732 12.4588 48.2785C14.3577 48.2363 16.2523 48.0799 18.1324 47.8098C24.311 46.9176 30.278 45.3237 35.8459 42.4139C37.1662 41.7503 38.4063 40.9374 39.5419 39.9912C40.0815 39.5268 40.5836 39.0204 41.0436 38.4767C41.3308 38.121 41.5609 37.7226 41.7257 37.2959C41.8796 36.9595 41.9167 36.5812 41.8309 36.2213C41.7451 35.8614 41.5415 35.5406 41.2525 35.3101C40.7274 34.851 40.1188 34.4977 39.46 34.2696C39.2723 34.1981 39.0846 34.1292 38.8995 34.063V32.9722C38.9524 32.959 38.9894 32.9378 39.0185 32.9457C40.1422 33.2261 41.1822 33.7727 42.0509 34.5396C42.3556 34.8126 42.598 35.148 42.7618 35.523C42.9255 35.8981 43.0068 36.3041 43 36.7134C43 37.9366 43.0027 39.1598 42.9895 40.3804C42.9674 40.9954 42.7881 41.5943 42.4686 42.12C42.0645 42.8095 41.5592 43.4342 40.9696 43.9733C39.4097 45.4428 37.5961 46.5363 35.7005 47.4974C32.4152 49.1214 28.9644 50.3855 25.4081 51.2677C22.1587 52.1155 18.8442 52.6894 15.4992 52.9834C13.0655 53.2142 10.6156 53.2186 8.18112 52.9967C6.60759 52.8747 5.05809 52.538 3.57561 51.9958C2.90609 51.7501 2.27698 51.4057 1.70908 50.9738C1.29296 50.6765 0.958821 50.2785 0.737836 49.8169C0.516851 49.3553 0.416223 48.8452 0.445346 48.3341C0.49029 47.2671 0.474426 46.1947 0.447988 45.1251C0.421037 44.3908 0.61144 43.6649 0.995257 43.0387C1.71009 41.8361 2.71449 40.832 3.91666 40.1183C7.13682 38.2358 10.3658 36.3665 13.6036 34.5105C13.7434 34.4564 13.8609 34.3567 13.9372 34.2274C14.0134 34.0982 14.044 33.947 14.0239 33.7983C13.9896 33.3932 14.0371 32.9828 14.0081 32.5751C13.9881 32.4345 14.0154 32.2913 14.0858 32.168C14.1562 32.0448 14.2656 31.9486 14.3967 31.8946C16.3425 30.7905 18.2778 29.6626 20.2157 28.5426C22.2726 27.3538 24.3215 26.1597 26.389 24.9868C26.5428 24.9201 26.6705 24.8047 26.7527 24.6584C26.8348 24.5121 26.8668 24.3429 26.8437 24.1766C26.8173 23.7874 26.8596 23.3929 26.8305 23.0063C26.8094 22.866 26.836 22.7226 26.906 22.5992C26.976 22.4758 27.0854 22.3796 27.2165 22.3259C28.9297 21.3621 30.6323 20.3745 32.3376 19.3949C33.5431 18.7012 34.747 18.0057 35.949 17.3085C36.0627 17.2423 36.1711 17.1629 36.3429 17.0464C35.7613 16.8822 35.2458 16.7366 34.68 16.5777C35.058 16.2782 35.4687 16.0224 35.9041 15.8152C36.0005 15.7855 36.1042 15.7902 36.1975 15.8284C36.9669 16.0323 37.7336 16.2415 38.5479 16.4639C38.3998 17.0331 38.2147 17.5759 38.1275 18.1372C38.0984 18.4484 37.9808 18.7448 37.7887 18.9911C37.5965 19.2375 37.338 19.4235 37.0435 19.5273C36.8588 19.6151 36.6796 19.7141 36.5068 19.8238Z" fill="#1D5506"/>
<path d="M28.9668 44.6751V43.2797C28.9694 37.235 28.9686 31.1904 28.9642 25.1457C28.9449 24.9659 28.9822 24.7845 29.0709 24.627C29.1595 24.4694 29.295 24.3434 29.4585 24.2667C32.3297 22.6278 35.1877 20.9677 38.0509 19.3155C38.1937 19.2334 38.3444 19.1593 38.5453 19.0508C38.5585 19.2255 38.577 19.3499 38.577 19.477C38.5797 26.1836 38.5832 32.8911 38.5876 39.5994C38.5948 39.7404 38.5624 39.8806 38.4942 40.0041C38.426 40.1276 38.3246 40.2296 38.2016 40.2984C36.2165 41.6341 34.0914 42.7483 31.8644 43.6213C31.0818 43.9416 30.2808 44.2249 29.4876 44.5215C29.3475 44.5718 29.2021 44.6062 28.9668 44.6751Z" fill="#1D5506"/>
<path d="M25.7254 28.6328V45.6759C22.5923 46.535 19.3926 47.1285 16.1601 47.4499V46.8965C16.1601 42.8058 16.1574 38.7143 16.1522 34.6219C16.1371 34.4743 16.1681 34.3258 16.2411 34.1968C16.314 34.0677 16.4252 33.9646 16.5593 33.9017C19.4569 32.2442 22.344 30.5656 25.2336 28.8949C25.379 28.8102 25.5271 28.7387 25.7254 28.6328Z" fill="#1D5506"/>
<path d="M12.9002 47.6538C12.8103 47.6715 12.7194 47.6829 12.6279 47.6882C10.4087 47.7752 8.18686 47.6091 6.00517 47.1931C5.08326 47.0176 4.19292 46.7043 3.36401 46.2637V43.7458C6.51279 41.9268 9.67477 40.0973 12.8976 38.236C12.9002 41.4238 12.9002 44.5295 12.9002 47.6538Z" fill="#1D5506"/>
</svg>
