<svg width="50" height="50" viewBox="0 0 50 50" fill="none" xmlns="http://www.w3.org/2000/svg">
<g clip-path="url(#clip0_195_352)">
<path d="M42.7212 42.7269C52.11 33.338 52.11 18.1157 42.7212 8.72687C33.3323 -0.661969 18.11 -0.661971 8.72119 8.72687C-0.66765 18.1157 -0.66765 33.338 8.72119 42.7269C18.11 52.1157 33.3323 52.1157 42.7212 42.7269Z" fill="#34661F"/>
<path d="M25.7266 1.6817V49.7721C38.9852 49.7721 49.7718 38.9855 49.7718 25.7269C49.7718 12.4683 38.9852 1.6817 25.7266 1.6817Z" fill="#1D5506"/>
<path d="M28.3492 41.4832C37.0509 40.027 42.9245 31.7925 41.4683 23.0908C40.0121 14.3891 31.7776 8.51546 23.076 9.97161C14.3744 11.4278 8.50077 19.6623 9.95693 28.364C11.4131 37.0657 19.6476 42.9393 28.3492 41.4832Z" fill="white"/>
<path d="M25.7266 9.74738V41.7063C34.5376 41.7063 41.7061 34.5378 41.7061 25.7268C41.7061 16.9158 34.5376 9.74738 25.7266 9.74738Z" fill="white"/>
<path d="M32.7803 29.3283C34.7646 25.4341 33.2162 20.6687 29.3221 18.6844C25.4279 16.7002 20.6625 18.2485 18.6782 22.1427C16.694 26.0369 18.2423 30.8023 22.1365 32.7865C26.0307 34.7708 30.7961 33.2224 32.7803 29.3283Z" fill="#34661F"/>
<path d="M25.7266 17.8132V33.6405C30.0902 33.6405 33.6403 30.0905 33.6403 25.7269C33.6403 21.3632 30.0902 17.8132 25.7266 17.8132Z" fill="#1D5506"/>
<path d="M17.7772 7.46098L10.7119 0.395622C10.3604 0.0439076 9.85388 -0.104726 9.36804 0.00105119C8.88221 0.106829 8.48345 0.452504 8.30978 0.91847L6.86367 4.79843L7.27675 7.27768L4.79751 6.8646L0.917638 8.31061C0.451672 8.48428 0.105997 8.88304 0.000219245 9.36887C-0.105461 9.85471 0.0430756 10.3611 0.39479 10.7127L7.46015 17.7781C7.73658 18.0546 8.10923 18.2061 8.49319 18.2061C8.57978 18.2061 8.66695 18.1984 8.75383 18.1827L15.7385 16.9165C16.3378 16.8078 16.8068 16.3387 16.9155 15.7395L18.1818 8.75476C18.2672 8.28334 18.1161 7.79984 17.7772 7.46098Z" fill="#D1D3D5"/>
<path d="M26.7604 24.6937L6.86499 4.7984L6.30406 6.30363L4.79883 6.86457L24.6942 26.76C24.9795 27.0453 25.3534 27.1878 25.7273 27.1878C26.1012 27.1878 26.4751 27.0452 26.7603 26.76C27.331 26.1894 27.331 25.2643 26.7604 24.6937Z" fill="#BABDC0"/>
</g>
<defs>
<clipPath id="clip0_195_352">
<rect width="50" height="50" fill="white"/>
</clipPath>
</defs>
</svg>
